<svg viewBox="0 0 520 480" xmlns="http://www.w3.org/2000/svg">
  <!-- Icon: Weiss + Blau + Cyan fuer dunkle Hintergruende (transparent, kein Hintergrund-Rect) -->
  <path d="M282.85 117.07l-22.42 30.78h22.42v156.2c-15.47-.53-30.93-.57-46.4-.15V0l46.4 34.79V117.07z" fill="#3b82f6"/>
  <path d="M209.49 58.99v246.08c-15.5.98-31.01 2.42-46.4 4.39v-75.29h26.43l-26.43-36.26V93.78L209.49 58.99z" fill="#ffffff"/>
  <path d="M358.7 93.78v216.59c-15.39-2.04-30.86-3.63-46.36-4.76V147.85H337l-24.65-33.88V58.99L358.7 93.78z" fill="#ffffff"/>
  <path d="M427.52 160.82v161.95c-15.35-3.48-30.82-6.5-46.36-9.04v-187.7L427.52 160.82z" fill="#06b6d4"/>
  <path d="M136.14 202.3l-23.22 31.88h23.22v79.18c-15.58 2.53-31.04 5.6-46.4 9.15V160.82l46.4-34.79V202.3z" fill="#06b6d4"/>
  <path d="M0 361.2c164.88-62.91 354.04-60.38 519.29 0-86.64-11.58-172.63-21.09-259.76-21.16C172.42 339.36 86.45 348.25 0 361.2z" fill="url(#lgVcard)"/>
  <defs><linearGradient id="lgVcard" x1="0" y1="361" x2="519" y2="361"><stop stop-color="#06b6d4"/><stop offset="1" stop-color="#3b82f6"/></linearGradient></defs>
  <text x="260" y="440" text-anchor="middle" fill="#ffffff" font-family="'DM Sans', 'Inter', system-ui, sans-serif" font-size="52" font-weight="700" letter-spacing="8">SINCIRUS</text>
</svg>
